<?xml version="1.0" encoding="UTF-8"?>
<!DOCTYPE svg PUBLIC "-//W3C//DTD SVG 1.1//EN"
    "http://www.w3.org/Graphics/SVG/1.1/DTD/svg11.dtd"><svg xmlns="http://www.w3.org/2000/svg" height="300" width="600" xmlns:xlink="http://www.w3.org/1999/xlink" version="1.11.1"><g transform="translate(200.0,100.0)"><polygon transform="rotate(0.0,50.0,50.0)" points="0.0 -70.0,60.621777 35.000008,-60.621784 34.999996" fill="rgb(91,0,0)"/><polygon transform="rotate(5.0,50.0,50.0)" points="0.0 -70.0,60.621777 35.000008,-60.621784 34.999996" fill="rgb(94,0,0)"/><polygon transform="rotate(10.0,50.0,50.0)" points="0.0 -70.0,60.621777 35.000008,-60.621784 34.999996" fill="rgb(98,0,0)"/><polygon transform="rotate(15.0,50.0,50.0)" points="0.0 -70.0,60.621777 35.000008,-60.621784 34.999996" fill="rgb(101,0,0)"/><polygon transform="rotate(20.0,50.0,50.0)" points="0.0 -70.0,60.621777 35.000008,-60.621784 34.999996" fill="rgb(105,0,0)"/><polygon transform="rotate(25.0,50.0,50.0)" points="0.0 -70.0,60.621777 35.000008,-60.621784 34.999996" fill="rgb(109,0,0)"/><polygon transform="rotate(30.0,50.0,50.0)" points="0.0 -70.0,60.621777 35.000008,-60.621784 34.999996" fill="rgb(113,0,0)"/><polygon transform="rotate(35.0,50.0,50.0)" points="0.0 -70.0,60.621777 35.000008,-60.621784 34.999996" fill="rgb(117,0,0)"/><polygon transform="rotate(40.0,50.0,50.0)" points="0.0 -70.0,60.621777 35.000008,-60.621784 34.999996" fill="rgb(121,0,0)"/><polygon transform="rotate(45.0,50.0,50.0)" points="0.0 -70.0,60.621777 35.000008,-60.621784 34.999996" fill="rgb(126,0,0)"/><polygon transform="rotate(50.0,50.0,50.0)" points="0.0 -70.0,60.621777 35.000008,-60.621784 34.999996" fill="rgb(130,0,0)"/><polygon transform="rotate(55.0,50.0,50.0)" points="0.0 -70.0,60.621777 35.000008,-60.621784 34.999996" fill="rgb(134,0,0)"/><polygon transform="rotate(60.0,50.0,50.0)" points="0.0 -70.0,60.621777 35.000008,-60.621784 34.999996" fill="rgb(139,0,0)"/><polygon transform="rotate(65.0,50.0,50.0)" points="0.0 -70.0,60.621777 35.000008,-60.621784 34.999996" fill="rgb(143,0,0)"/><polygon transform="rotate(70.0,50.0,50.0)" points="0.0 -70.0,60.621777 35.000008,-60.621784 34.999996" fill="rgb(148,0,0)"/><polygon transform="rotate(75.0,50.0,50.0)" points="0.0 -70.0,60.621777 35.000008,-60.621784 34.999996" fill="rgb(152,0,0)"/><polygon transform="rotate(80.0,50.0,50.0)" points="0.0 -70.0,60.621777 35.000008,-60.621784 34.999996" fill="rgb(157,0,0)"/><polygon transform="rotate(85.0,50.0,50.0)" points="0.0 -70.0,60.621777 35.000008,-60.621784 34.999996" fill="rgb(162,0,0)"/><polygon transform="rotate(90.0,50.0,50.0)" points="0.0 -70.0,60.621777 35.000008,-60.621784 34.999996" fill="rgb(166,0,0)"/><polygon transform="rotate(95.0,50.0,50.0)" points="0.0 -70.0,60.621777 35.000008,-60.621784 34.999996" fill="rgb(171,0,0)"/><polygon transform="rotate(100.0,50.0,50.0)" points="0.0 -70.0,60.621777 35.000008,-60.621784 34.999996" fill="rgb(176,0,0)"/><polygon transform="rotate(105.0,50.0,50.0)" points="0.0 -70.0,60.621777 35.000008,-60.621784 34.999996" fill="rgb(181,0,0)"/><polygon transform="rotate(110.0,50.0,50.0)" points="0.0 -70.0,60.621777 35.000008,-60.621784 34.999996" fill="rgb(185,0,0)"/><polygon transform="rotate(115.0,50.0,50.0)" points="0.0 -70.0,60.621777 35.000008,-60.621784 34.999996" fill="rgb(190,0,0)"/><polygon transform="rotate(120.0,50.0,50.0)" points="0.0 -70.0,60.621777 35.000008,-60.621784 34.999996" fill="rgb(195,0,0)"/><polygon transform="rotate(125.0,50.0,50.0)" points="0.0 -70.0,60.621777 35.000008,-60.621784 34.999996" fill="rgb(200,0,0)"/><polygon transform="rotate(130.0,50.0,50.0)" points="0.0 -70.0,60.621777 35.000008,-60.621784 34.999996" fill="rgb(205,0,0)"/><polygon transform="rotate(135.0,50.0,50.0)" points="0.0 -70.0,60.621777 35.000008,-60.621784 34.999996" fill="rgb(210,0,0)"/><polygon transform="rotate(140.0,50.0,50.0)" points="0.0 -70.0,60.621777 35.000008,-60.621784 34.999996" fill="rgb(215,0,0)"/><polygon transform="rotate(145.0,50.0,50.0)" points="0.0 -70.0,60.621777 35.000008,-60.621784 34.999996" fill="rgb(220,0,0)"/><polygon transform="rotate(150.0,50.0,50.0)" points="0.0 -70.0,60.621777 35.000008,-60.621784 34.999996" fill="rgb(225,0,0)"/><polygon transform="rotate(155.0,50.0,50.0)" points="0.0 -70.0,60.621777 35.000008,-60.621784 34.999996" fill="rgb(230,0,0)"/><polygon transform="rotate(160.0,50.0,50.0)" points="0.0 -70.0,60.621777 35.000008,-60.621784 34.999996" fill="rgb(235,0,0)"/><polygon transform="rotate(165.0,50.0,50.0)" points="0.0 -70.0,60.621777 35.000008,-60.621784 34.999996" fill="rgb(240,0,0)"/><polygon transform="rotate(170.0,50.0,50.0)" points="0.0 -70.0,60.621777 35.000008,-60.621784 34.999996" fill="rgb(245,0,0)"/><polygon transform="rotate(175.0,50.0,50.0)" points="0.0 -70.0,60.621777 35.000008,-60.621784 34.999996" fill="rgb(250,0,0)"/><polygon transform="rotate(180.0,50.0,50.0)" points="0.0 -70.0,60.621777 35.000008,-60.621784 34.999996" fill="rgb(255,0,0)"/><polygon transform="rotate(185.0,50.0,50.0)" points="0.0 -70.0,60.621777 35.000008,-60.621784 34.999996" fill="rgb(255,17,5)"/><polygon transform="rotate(190.0,50.0,50.0)" points="0.0 -70.0,60.621777 35.000008,-60.621784 34.999996" fill="rgb(255,28,11)"/><polygon transform="rotate(195.0,50.0,50.0)" points="0.0 -70.0,60.621777 35.000008,-60.621784 34.999996" fill="rgb(255,37,16)"/><polygon transform="rotate(200.0,50.0,50.0)" points="0.0 -70.0,60.621777 35.000008,-60.621784 34.999996" fill="rgb(255,44,21)"/><polygon transform="rotate(205.0,50.0,50.0)" points="0.0 -70.0,60.621777 35.000008,-60.621784 34.999996" fill="rgb(255,51,25)"/><polygon transform="rotate(210.0,50.0,50.0)" points="0.0 -70.0,60.621777 35.000008,-60.621784 34.999996" fill="rgb(255,57,29)"/><polygon transform="rotate(215.0,50.0,50.0)" points="0.0 -70.0,60.621777 35.000008,-60.621784 34.999996" fill="rgb(255,63,33)"/><polygon transform="rotate(220.0,50.0,50.0)" points="0.0 -70.0,60.621777 35.000008,-60.621784 34.999996" fill="rgb(255,68,37)"/><polygon transform="rotate(225.0,50.0,50.0)" points="0.0 -70.0,60.621777 35.000008,-60.621784 34.999996" fill="rgb(255,74,41)"/><polygon transform="rotate(230.0,50.0,50.0)" points="0.0 -70.0,60.621777 35.000008,-60.621784 34.999996" fill="rgb(255,79,45)"/><polygon transform="rotate(235.0,50.0,50.0)" points="0.0 -70.0,60.621777 35.000008,-60.621784 34.999996" fill="rgb(255,84,49)"/><polygon transform="rotate(240.0,50.0,50.0)" points="0.0 -70.0,60.621777 35.000008,-60.621784 34.999996" fill="rgb(255,89,53)"/><polygon transform="rotate(245.0,50.0,50.0)" points="0.0 -70.0,60.621777 35.000008,-60.621784 34.999996" fill="rgb(255,94,57)"/><polygon transform="rotate(250.0,50.0,50.0)" points="0.0 -70.0,60.621777 35.000008,-60.621784 34.999996" fill="rgb(255,99,60)"/><polygon transform="rotate(255.0,50.0,50.0)" points="0.0 -70.0,60.621777 35.000008,-60.621784 34.999996" fill="rgb(255,103,64)"/><polygon transform="rotate(260.0,50.0,50.0)" points="0.0 -70.0,60.621777 35.000008,-60.621784 34.999996" fill="rgb(255,108,68)"/><polygon transform="rotate(265.0,50.0,50.0)" points="0.0 -70.0,60.621777 35.000008,-60.621784 34.999996" fill="rgb(255,113,72)"/><polygon transform="rotate(270.0,50.0,50.0)" points="0.0 -70.0,60.621777 35.000008,-60.621784 34.999996" fill="rgb(255,117,75)"/><polygon transform="rotate(275.0,50.0,50.0)" points="0.0 -70.0,60.621777 35.000008,-60.621784 34.999996" fill="rgb(255,122,79)"/><polygon transform="rotate(280.0,50.0,50.0)" points="0.0 -70.0,60.621777 35.000008,-60.621784 34.999996" fill="rgb(255,127,83)"/><polygon transform="rotate(285.0,50.0,50.0)" points="0.0 -70.0,60.621777 35.000008,-60.621784 34.999996" fill="rgb(255,131,87)"/><polygon transform="rotate(290.0,50.0,50.0)" points="0.0 -70.0,60.621777 35.000008,-60.621784 34.999996" fill="rgb(255,136,91)"/><polygon transform="rotate(295.0,50.0,50.0)" points="0.0 -70.0,60.621777 35.000008,-60.621784 34.999996" fill="rgb(255,140,94)"/><polygon transform="rotate(300.0,50.0,50.0)" points="0.0 -70.0,60.621777 35.000008,-60.621784 34.999996" fill="rgb(255,145,98)"/><polygon transform="rotate(305.0,50.0,50.0)" points="0.0 -70.0,60.621777 35.000008,-60.621784 34.999996" fill="rgb(255,149,102)"/><polygon transform="rotate(310.0,50.0,50.0)" points="0.0 -70.0,60.621777 35.000008,-60.621784 34.999996" fill="rgb(255,154,106)"/><polygon transform="rotate(315.0,50.0,50.0)" points="0.0 -70.0,60.621777 35.000008,-60.621784 34.999996" fill="rgb(255,158,110)"/><polygon transform="rotate(320.0,50.0,50.0)" points="0.0 -70.0,60.621777 35.000008,-60.621784 34.999996" fill="rgb(255,163,114)"/><polygon transform="rotate(325.0,50.0,50.0)" points="0.0 -70.0,60.621777 35.000008,-60.621784 34.999996" fill="rgb(255,167,118)"/><polygon transform="rotate(330.0,50.0,50.0)" points="0.0 -70.0,60.621777 35.000008,-60.621784 34.999996" fill="rgb(255,172,122)"/><polygon transform="rotate(335.0,50.0,50.0)" points="0.0 -70.0,60.621777 35.000008,-60.621784 34.999996" fill="rgb(255,176,125)"/><polygon transform="rotate(340.0,50.0,50.0)" points="0.0 -70.0,60.621777 35.000008,-60.621784 34.999996" fill="rgb(255,181,129)"/><polygon transform="rotate(345.0,50.0,50.0)" points="0.0 -70.0,60.621777 35.000008,-60.621784 34.999996" fill="rgb(255,185,133)"/><polygon transform="rotate(350.0,50.0,50.0)" points="0.0 -70.0,60.621777 35.000008,-60.621784 34.999996" fill="rgb(255,190,137)"/><polygon transform="rotate(355.0,50.0,50.0)" points="0.0 -70.0,60.621777 35.000008,-60.621784 34.999996" fill="rgb(255,194,141)"/><polygon transform="rotate(360.0,50.0,50.0)" points="0.0 -70.0,60.621777 35.000008,-60.621784 34.999996" fill="rgb(255,199,145)"/></g></svg>
